<svg xmlns="http://www.w3.org/2000/svg" xmlns:xlink="http://www.w3.org/1999/xlink" width="500" zoomAndPan="magnify" viewBox="0 0 375 374.999991" height="500" preserveAspectRatio="xMidYMid meet" version="1.0"><defs><clipPath id="f49f5905f5"><path d="M -284.429688 120.425781 L 316.019531 -146.238281 L 582.683594 454.210938 L -17.765625 720.875 Z M -284.429688 120.425781 " clip-rule="nonzero"/></clipPath><clipPath id="7a1176b5d4"><path d="M -284.429688 120.425781 L 316.019531 -146.238281 L 582.683594 454.210938 L -17.765625 720.875 Z M -284.429688 120.425781 " clip-rule="nonzero"/></clipPath><clipPath id="9038863585"><path d="M -284.429688 120.425781 L 316.230469 -146.332031 L 582.988281 454.328125 L -17.671875 721.085938 Z M -284.429688 120.425781 " clip-rule="nonzero"/></clipPath><linearGradient x1="26.985528" gradientTransform="matrix(5.304316, -2.355701, 2.355701, 5.304316, -284.430229, 120.426967)" y1="56.618" x2="112.260809" gradientUnits="userSpaceOnUse" y2="56.618" id="88f096c7ec"><stop stop-opacity="1" stop-color="rgb(82.214355%, 97.7005%, 89.315796%)" offset="0"/><stop stop-opacity="1" stop-color="rgb(82.052612%, 97.58606%, 89.173889%)" offset="0.03125"/><stop stop-opacity="1" stop-color="rgb(81.7276%, 97.358704%, 88.88855%)" offset="0.0625"/><stop stop-opacity="1" stop-color="rgb(81.404114%, 97.131348%, 88.60321%)" offset="0.09375"/><stop stop-opacity="1" stop-color="rgb(81.079102%, 96.905518%, 88.319397%)" offset="0.125"/><stop stop-opacity="1" stop-color="rgb(80.754089%, 96.678162%, 88.034058%)" offset="0.15625"/><stop stop-opacity="1" stop-color="rgb(80.430603%, 96.450806%, 87.750244%)" offset="0.1875"/><stop stop-opacity="1" stop-color="rgb(80.105591%, 96.22345%, 87.464905%)" offset="0.21875"/><stop stop-opacity="1" stop-color="rgb(79.782104%, 95.996094%, 87.181091%)" offset="0.25"/><stop stop-opacity="1" stop-color="rgb(79.457092%, 95.770264%, 86.895752%)" offset="0.28125"/><stop stop-opacity="1" stop-color="rgb(79.133606%, 95.542908%, 86.610413%)" offset="0.3125"/><stop stop-opacity="1" stop-color="rgb(78.808594%, 95.315552%, 86.326599%)" offset="0.34375"/><stop stop-opacity="1" stop-color="rgb(78.483582%, 95.088196%, 86.04126%)" offset="0.375"/><stop stop-opacity="1" stop-color="rgb(78.160095%, 94.86084%, 85.757446%)" offset="0.40625"/><stop stop-opacity="1" stop-color="rgb(77.835083%, 94.63501%, 85.472107%)" offset="0.4375"/><stop stop-opacity="1" stop-color="rgb(77.511597%, 94.407654%, 85.186768%)" offset="0.46875"/><stop stop-opacity="1" stop-color="rgb(77.186584%, 94.180298%, 84.902954%)" offset="0.5"/><stop stop-opacity="1" stop-color="rgb(76.863098%, 93.952942%, 84.617615%)" offset="0.53125"/><stop stop-opacity="1" stop-color="rgb(76.618958%, 93.783569%, 84.403992%)" offset="0.546875"/><stop stop-opacity="1" stop-color="rgb(76.40686%, 93.783569%, 84.291077%)" offset="0.5625"/><stop stop-opacity="1" stop-color="rgb(76.127625%, 93.933105%, 84.217834%)" offset="0.578125"/><stop stop-opacity="1" stop-color="rgb(75.83313%, 94.120789%, 84.153748%)" offset="0.59375"/><stop stop-opacity="1" stop-color="rgb(75.537109%, 94.306946%, 84.089661%)" offset="0.609375"/><stop stop-opacity="1" stop-color="rgb(75.242615%, 94.493103%, 84.024048%)" offset="0.625"/><stop stop-opacity="1" stop-color="rgb(74.94812%, 94.67926%, 83.959961%)" offset="0.640625"/><stop stop-opacity="1" stop-color="rgb(74.6521%, 94.866943%, 83.895874%)" offset="0.65625"/><stop stop-opacity="1" stop-color="rgb(74.357605%, 95.053101%, 83.831787%)" offset="0.671875"/><stop stop-opacity="1" stop-color="rgb(74.06311%, 95.239258%, 83.7677%)" offset="0.6875"/><stop stop-opacity="1" stop-color="rgb(73.76709%, 95.425415%, 83.702087%)" offset="0.703125"/><stop stop-opacity="1" stop-color="rgb(73.472595%, 95.611572%, 83.638%)" offset="0.71875"/><stop stop-opacity="1" stop-color="rgb(73.178101%, 95.799255%, 83.573914%)" offset="0.734375"/><stop stop-opacity="1" stop-color="rgb(72.88208%, 95.985413%, 83.509827%)" offset="0.75"/><stop stop-opacity="1" stop-color="rgb(72.587585%, 96.17157%, 83.444214%)" offset="0.765625"/><stop stop-opacity="1" stop-color="rgb(72.293091%, 96.357727%, 83.380127%)" offset="0.78125"/><stop stop-opacity="1" stop-color="rgb(71.99707%, 96.54541%, 83.31604%)" offset="0.796875"/><stop stop-opacity="1" stop-color="rgb(71.702576%, 96.731567%, 83.251953%)" offset="0.8125"/><stop stop-opacity="1" stop-color="rgb(71.408081%, 96.917725%, 83.187866%)" offset="0.828125"/><stop stop-opacity="1" stop-color="rgb(71.112061%, 97.103882%, 83.122253%)" offset="0.84375"/><stop stop-opacity="1" stop-color="rgb(70.817566%, 97.290039%, 83.058167%)" offset="0.859375"/><stop stop-opacity="1" stop-color="rgb(70.523071%, 97.477722%, 82.99408%)" offset="0.875"/><stop stop-opacity="1" stop-color="rgb(70.227051%, 97.663879%, 82.929993%)" offset="0.890625"/><stop stop-opacity="1" stop-color="rgb(69.932556%, 97.850037%, 82.86438%)" offset="0.90625"/><stop stop-opacity="1" stop-color="rgb(69.636536%, 98.036194%, 82.800293%)" offset="0.921875"/><stop stop-opacity="1" stop-color="rgb(69.342041%, 98.223877%, 82.736206%)" offset="0.9375"/><stop stop-opacity="1" stop-color="rgb(69.047546%, 98.410034%, 82.672119%)" offset="0.953125"/><stop stop-opacity="1" stop-color="rgb(68.751526%, 98.596191%, 82.608032%)" offset="0.96875"/><stop stop-opacity="1" stop-color="rgb(68.457031%, 98.782349%, 82.542419%)" offset="0.984375"/><stop stop-opacity="1" stop-color="rgb(68.162537%, 98.970032%, 82.478333%)" offset="1"/></linearGradient><clipPath id="c3fd078af5"><path d="M 135.046875 203.734375 L 189 203.734375 L 189 262.480469 L 135.046875 262.480469 Z M 135.046875 203.734375 " clip-rule="nonzero"/></clipPath><clipPath id="6cf11ba15f"><path d="M 178.53125 204 L 240 204 L 240 262.480469 L 178.53125 262.480469 Z M 178.53125 204 " clip-rule="nonzero"/></clipPath><clipPath id="ca47a034f9"><path d="M 134.25 112.519531 L 240.75 112.519531 L 240.75 219 L 134.25 219 Z M 134.25 112.519531 " clip-rule="nonzero"/></clipPath></defs><rect x="-37.5" width="450" fill="#ffffff" y="-37.499999" height="449.999989" fill-opacity="1"/><rect x="-37.5" width="450" fill="#ffffff" y="-37.499999" height="449.999989" fill-opacity="1"/><rect x="-37.5" width="450" fill="#51575d" y="-37.499999" height="449.999989" fill-opacity="1"/><g clip-path="url(#f49f5905f5)"><g clip-path="url(#7a1176b5d4)"><g clip-path="url(#9038863585)"><path fill="url(#88f096c7ec)" d="M -139.105469 61.777344 L 61.777344 514.105469 L 514.105469 313.222656 L 313.222656 -139.105469 Z M -139.105469 61.777344 " fill-rule="nonzero"/></g></g></g><g clip-path="url(#c3fd078af5)"><path fill="#00ac4f" d="M 171.699219 262.480469 C 171.015625 262.46875 170.433594 262.082031 170.164062 261.492188 L 161.179688 241.828125 L 136.980469 244.804688 C 136.355469 244.878906 135.75 244.609375 135.390625 244.097656 C 135.03125 243.585938 134.984375 242.917969 135.265625 242.363281 L 154.285156 204.761719 C 154.707031 203.929688 155.726562 203.589844 156.554688 204.015625 C 157.386719 204.4375 157.722656 205.453125 157.300781 206.289062 L 139.714844 241.0625 L 161.996094 238.320312 C 162.726562 238.226562 163.433594 238.625 163.738281 239.296875 L 171.78125 256.898438 L 185.757812 229.339844 C 186.183594 228.507812 187.199219 228.179688 188.03125 228.597656 C 188.863281 229.019531 189.199219 230.035156 188.773438 230.867188 L 173.207031 261.554688 C 172.917969 262.125 172.335938 262.480469 171.699219 262.480469 " fill-opacity="1" fill-rule="nonzero"/></g><g clip-path="url(#6cf11ba15f)"><path fill="#00ac4f" d="M 203.304688 262.480469 C 202.667969 262.480469 202.082031 262.121094 201.792969 261.554688 L 178.785156 216.066406 C 178.363281 215.230469 178.699219 214.214844 179.53125 213.792969 C 180.363281 213.367188 181.382812 213.703125 181.804688 214.539062 L 203.226562 256.894531 L 211.261719 239.296875 C 211.570312 238.625 212.265625 238.226562 213.007812 238.320312 L 235.289062 241.0625 L 217.832031 206.542969 C 217.410156 205.707031 217.746094 204.691406 218.578125 204.273438 C 219.410156 203.84375 220.425781 204.183594 220.847656 205.015625 L 239.738281 242.363281 C 240.019531 242.917969 239.972656 243.585938 239.613281 244.097656 C 239.253906 244.609375 238.648438 244.882812 238.023438 244.804688 L 213.824219 241.828125 L 204.839844 261.492188 C 204.570312 262.085938 203.988281 262.46875 203.335938 262.480469 C 203.324219 262.480469 203.3125 262.480469 203.304688 262.480469 " fill-opacity="1" fill-rule="nonzero"/></g><g clip-path="url(#ca47a034f9)"><path fill="#00ac4f" d="M 187.5 115.902344 C 185.019531 115.902344 182.613281 116.789062 180.722656 118.398438 L 174.640625 123.582031 C 172.414062 125.480469 169.691406 126.605469 166.773438 126.839844 L 158.808594 127.476562 C 153.660156 127.886719 149.628906 131.914062 149.222656 137.0625 L 148.585938 145.023438 C 148.351562 147.949219 147.226562 150.671875 145.324219 152.898438 L 140.144531 158.976562 C 136.796875 162.902344 136.796875 168.605469 140.144531 172.535156 L 145.324219 178.613281 C 147.226562 180.839844 148.351562 183.5625 148.585938 186.484375 L 149.222656 194.449219 C 149.628906 199.59375 153.664062 203.621094 158.808594 204.035156 L 166.773438 204.671875 C 169.691406 204.902344 172.414062 206.03125 174.640625 207.929688 L 180.722656 213.109375 C 184.503906 216.335938 190.503906 216.332031 194.28125 213.109375 L 200.359375 207.929688 C 202.589844 206.03125 205.3125 204.902344 208.230469 204.671875 L 216.195312 204.035156 C 221.335938 203.625 225.371094 199.59375 225.78125 194.449219 L 226.417969 186.484375 C 226.648438 183.5625 227.777344 180.839844 229.679688 178.613281 L 234.855469 172.535156 C 238.203125 168.605469 238.203125 162.902344 234.855469 158.976562 L 229.679688 152.894531 C 227.777344 150.667969 226.648438 147.945312 226.417969 145.023438 L 225.78125 137.0625 C 225.371094 131.914062 221.335938 127.886719 216.195312 127.476562 L 208.230469 126.839844 C 205.3125 126.605469 202.589844 125.480469 200.359375 123.582031 L 194.28125 118.398438 C 192.390625 116.789062 189.984375 115.902344 187.5 115.902344 Z M 187.5 218.988281 C 184.214844 218.988281 181.03125 217.816406 178.53125 215.683594 L 172.449219 210.503906 C 170.765625 209.066406 168.707031 208.214844 166.503906 208.042969 L 158.539062 207.40625 C 151.730469 206.859375 146.394531 201.523438 145.851562 194.71875 L 145.214844 186.753906 C 145.039062 184.546875 144.1875 182.488281 142.753906 180.808594 L 137.570312 174.726562 C 133.144531 169.527344 133.144531 161.980469 137.570312 156.785156 L 142.753906 150.703125 C 144.1875 149.023438 145.039062 146.964844 145.214844 144.757812 L 145.851562 136.792969 C 146.394531 129.984375 151.730469 124.648438 158.539062 124.105469 L 166.503906 123.46875 C 168.707031 123.292969 170.765625 122.441406 172.449219 121.003906 L 178.53125 115.824219 C 181.03125 113.695312 184.214844 112.519531 187.5 112.519531 C 190.785156 112.519531 193.972656 113.695312 196.472656 115.824219 L 202.554688 121.003906 C 204.238281 122.441406 206.296875 123.292969 208.5 123.46875 L 216.460938 124.105469 C 223.269531 124.648438 228.605469 129.984375 229.152344 136.792969 L 229.785156 144.757812 C 229.964844 146.964844 230.816406 149.019531 232.25 150.703125 L 237.429688 156.785156 C 241.863281 161.980469 241.863281 169.527344 237.429688 174.726562 L 232.25 180.804688 C 230.816406 182.492188 229.964844 184.546875 229.785156 186.753906 L 229.152344 194.71875 C 228.605469 201.523438 223.269531 206.859375 216.460938 207.40625 L 208.5 208.042969 C 206.296875 208.214844 204.238281 209.066406 202.554688 210.503906 L 196.472656 215.6875 C 193.972656 217.816406 190.785156 218.988281 187.5 218.988281 " fill-opacity="1" fill-rule="nonzero"/></g><path fill="#00ac4f" d="M 187.5 141.167969 C 173.945312 141.167969 162.914062 152.199219 162.914062 165.757812 C 162.914062 179.3125 173.945312 190.339844 187.5 190.339844 C 201.058594 190.339844 212.089844 179.3125 212.089844 165.757812 C 212.089844 152.199219 201.058594 141.167969 187.5 141.167969 Z M 187.5 193.722656 C 172.082031 193.722656 159.535156 181.175781 159.535156 165.757812 C 159.535156 150.332031 172.082031 137.789062 187.5 137.789062 C 202.921875 137.789062 215.46875 150.332031 215.46875 165.757812 C 215.46875 181.175781 202.921875 193.722656 187.5 193.722656 " fill-opacity="1" fill-rule="nonzero"/><path fill="#00ac4f" d="M 187.5 131.316406 C 168.511719 131.316406 153.0625 146.765625 153.0625 165.757812 C 153.0625 184.746094 168.511719 200.195312 187.5 200.195312 C 206.492188 200.195312 221.941406 184.746094 221.941406 165.757812 C 221.941406 146.765625 206.492188 131.316406 187.5 131.316406 Z M 187.5 203.574219 C 166.648438 203.574219 149.679688 186.609375 149.679688 165.757812 C 149.679688 144.902344 166.648438 127.9375 187.5 127.9375 C 208.355469 127.9375 225.320312 144.902344 225.320312 165.757812 C 225.320312 186.609375 208.355469 203.574219 187.5 203.574219 " fill-opacity="1" fill-rule="nonzero"/></svg>